<?xml version="1.0" encoding="UTF-8" standalone="no"?>
<!-- Created with Inkscape (http://www.inkscape.org/) -->
<svg
   xmlns:dc="http://purl.org/dc/elements/1.1/"
   xmlns:cc="http://web.resource.org/cc/"
   xmlns:rdf="http://www.w3.org/1999/02/22-rdf-syntax-ns#"
   xmlns:svg="http://www.w3.org/2000/svg"
   xmlns="http://www.w3.org/2000/svg"
   xmlns:sodipodi="http://sodipodi.sourceforge.net/DTD/sodipodi-0.dtd"
   xmlns:inkscape="http://www.inkscape.org/namespaces/inkscape"
   height="384.92105"
   width="559.03412"
   id="svg2"
   sodipodi:version="0.32"
   inkscape:version="0.44.1"
   sodipodi:docbase="D:\dokumenty\kot\do wiki\upload"
   sodipodi:docname="Mobile phone keyboard.svg"
   version="1.0">
  <defs
     id="defs4" />
  <sodipodi:namedview
     id="base"
     pagecolor="#ffffff"
     bordercolor="#666666"
     borderopacity="1.0"
     inkscape:pageopacity="0.0"
     inkscape:pageshadow="2"
     inkscape:cx="279.51708"
     inkscape:cy="192.92857"
     inkscape:zoom="1.2595335"
     inkscape:document-units="px"
     inkscape:current-layer="layer1"
     inkscape:window-width="1024"
     inkscape:window-height="682"
     inkscape:window-x="-4"
     inkscape:window-y="-4"
     showguides="true"
     inkscape:guide-bbox="true" />
  <metadata
     id="metadata7">
    <rdf:RDF>
      <cc:Work
         rdf:about="">
        <dc:format>image/svg+xml</dc:format>
        <dc:type
           rdf:resource="http://purl.org/dc/dcmitype/StillImage" />
      </cc:Work>
    </rdf:RDF>
  </metadata>
  <g
     inkscape:groupmode="layer"
     inkscape:label="Warstwa 1"
     id="layer1"
     transform="translate(-30.15038,-18.22685)">
    <rect
       style="fill:#d7eef4;fill-opacity:1;stroke:black;stroke-width:3.9315865;stroke-linecap:butt;stroke-linejoin:miter;stroke-miterlimit:4;stroke-dasharray:none;stroke-dashoffset:0;stroke-opacity:1"
       id="rect1933"
       width="555.10254"
       height="380.98947"
       x="32.116173"
       y="20.192638"
       ry="40.251957" />
    <path
       style="opacity:1;color:black;fill:none;fill-opacity:1;fill-rule:nonzero;stroke:black;stroke-width:3.9315865;stroke-linecap:butt;stroke-linejoin:miter;marker:none;marker-start:none;marker-mid:none;marker-end:none;stroke-miterlimit:4;stroke-dasharray:none;stroke-dashoffset:0;stroke-opacity:1;visibility:visible;display:inline;overflow:visible"
       d="M 206.22929,19.256546 L 206.22929,400.24601"
       id="path3707" />
    <path
       id="path4594"
       d="M 404.6808,19.256546 L 404.6808,400.24601"
       style="opacity:1;color:black;fill:none;fill-opacity:1;fill-rule:nonzero;stroke:black;stroke-width:3.9315865;stroke-linecap:butt;stroke-linejoin:miter;marker:none;marker-start:none;marker-mid:none;marker-end:none;stroke-miterlimit:4;stroke-dasharray:none;stroke-dashoffset:0;stroke-opacity:1;visibility:visible;display:inline;overflow:visible" />
    <path
       style="opacity:1;color:black;fill:none;fill-opacity:1;fill-rule:nonzero;stroke:black;stroke-width:3.9315865;stroke-linecap:butt;stroke-linejoin:miter;marker:none;marker-start:none;marker-mid:none;marker-end:none;stroke-miterlimit:4;stroke-dasharray:none;stroke-dashoffset:0;stroke-opacity:1;visibility:visible;display:inline;overflow:visible"
       d="M 31.180079,303.4541 L 588.15485,303.4541"
       id="path4596" />
    <path
       id="path5483"
       d="M 31.180079,207.97271 L 588.15485,207.97271"
       style="opacity:1;color:black;fill:none;fill-opacity:1;fill-rule:nonzero;stroke:black;stroke-width:3.9315865;stroke-linecap:butt;stroke-linejoin:miter;marker:none;marker-start:none;marker-mid:none;marker-end:none;stroke-miterlimit:4;stroke-dasharray:none;stroke-dashoffset:0;stroke-opacity:1;visibility:visible;display:inline;overflow:visible" />
    <path
       style="opacity:1;color:black;fill:none;fill-opacity:1;fill-rule:nonzero;stroke:black;stroke-width:3.9315865;stroke-linecap:butt;stroke-linejoin:miter;marker:none;marker-start:none;marker-mid:none;marker-end:none;stroke-miterlimit:4;stroke-dasharray:none;stroke-dashoffset:0;stroke-opacity:1;visibility:visible;display:inline;overflow:visible"
       d="M 31.180079,113.42742 L 588.15485,113.42742"
       id="path5485" />
    <path
       style="font-size:62.90538406px;font-style:normal;font-variant:normal;font-weight:normal;font-stretch:normal;text-align:center;line-height:100%;writing-mode:lr-tb;text-anchor:middle;fill:black;fill-opacity:1;stroke:none;stroke-width:1px;stroke-linecap:butt;stroke-linejoin:miter;stroke-opacity:1;font-family:Times New Roman"
       d="M 73.374428,53.77056 L 83.51055,48.825361 L 84.524162,48.825361 L 84.524162,83.994631 C 84.524143,86.329015 84.621409,87.782882 84.815959,88.356235 C 85.010472,88.929593 85.414893,89.369849 86.029222,89.677002 C 86.643512,89.984158 87.892609,90.158213 89.776516,90.199166 L 89.776516,91.33564 L 74.111601,91.33564 L 74.111601,90.199166 C 76.077384,90.158213 77.346958,89.989278 77.920325,89.69236 C 78.493669,89.395445 78.89297,88.996144 79.118231,88.494454 C 79.343464,87.992771 79.456088,86.492831 79.456101,83.994631 L 79.456101,61.51087 C 79.456088,58.480305 79.353703,56.534991 79.148946,55.674922 C 79.005594,55.019694 78.744512,54.538484 78.3657,54.231292 C 77.986864,53.924175 77.53125,53.770597 76.99886,53.77056 C 76.2412,53.770597 75.186635,54.08799 73.835161,54.722741 L 73.374428,53.77056 z "
       id="text6372" />
    <path
       style="font-size:62.90538406px;font-style:normal;font-variant:normal;font-weight:normal;font-stretch:normal;text-align:center;line-height:100%;writing-mode:lr-tb;text-anchor:middle;fill:black;fill-opacity:1;stroke:none;stroke-width:1px;stroke-linecap:butt;stroke-linejoin:miter;stroke-opacity:1;font-family:Times New Roman"
       d="M 268.95769,83.318889 L 266.03972,91.33564 L 241.4673,91.33564 L 241.4673,90.199166 C 248.69568,83.605575 253.78421,78.220126 256.73291,74.042802 C 259.68158,69.865513 261.15593,66.046554 261.15595,62.585914 C 261.15593,59.94441 260.34709,57.773849 258.72942,56.074223 C 257.11172,54.374668 255.17665,53.524873 252.92419,53.524835 C 250.87648,53.524873 249.03867,54.123825 247.41075,55.321693 C 245.78282,56.519633 244.5798,58.275535 243.80168,60.589405 L 242.66521,60.589405 C 243.17713,56.801192 244.49277,53.893459 246.61215,51.866197 C 248.73151,49.839015 251.37816,48.825403 254.55211,48.825361 C 257.9308,48.825403 260.75151,49.910684 263.01424,52.081206 C 265.27692,54.251806 266.40828,56.81143 266.4083,59.760086 C 266.40828,61.869248 265.91683,63.978378 264.93396,66.087483 C 263.41863,69.404781 260.9614,72.916585 257.56223,76.622906 C 252.46344,82.192663 249.27927,85.55089 248.00971,86.697596 L 258.883,86.697596 C 261.0945,86.697601 262.64563,86.615693 263.5364,86.451872 C 264.42713,86.288061 265.23085,85.95531 265.94757,85.453618 C 266.66424,84.951938 267.28879,84.240362 267.82122,83.318889 L 268.95769,83.318889 z "
       id="text6376" />
    <path
       style="font-size:62.90538406px;font-style:normal;font-variant:normal;font-weight:normal;font-stretch:normal;text-align:center;line-height:100%;writing-mode:lr-tb;text-anchor:middle;fill:black;fill-opacity:1;stroke:none;stroke-width:1px;stroke-linecap:butt;stroke-linejoin:miter;stroke-opacity:1;font-family:Times New Roman"
       d="M 436.14519,57.609999 C 437.33285,54.804685 438.83279,52.639243 440.64502,51.113667 C 442.45722,49.588171 444.71481,48.825403 447.41779,48.825361 C 450.75552,48.825403 453.31515,49.910684 455.09667,52.081206 C 456.44813,53.698928 457.12387,55.429233 457.12389,57.272129 C 457.12387,60.302758 455.21951,63.435738 451.41081,66.671078 C 453.97041,67.674475 455.90549,69.107865 457.21604,70.97125 C 458.52654,72.834677 459.18181,75.025715 459.18183,77.544372 C 459.18181,81.148336 458.03509,84.271078 455.74169,86.912605 C 452.75203,90.352744 448.42115,92.072812 442.74903,92.072812 C 439.94367,92.072812 438.03419,91.724703 437.02058,91.028485 C 436.00697,90.332267 435.50016,89.584857 435.50017,88.786252 C 435.50016,88.192422 435.74077,87.670258 436.22198,87.21976 C 436.70319,86.769271 437.28166,86.544024 437.95741,86.544019 C 438.46933,86.544024 438.99149,86.625932 439.5239,86.789743 C 439.872,86.892133 440.66037,87.265838 441.88899,87.91086 C 443.1176,88.555888 443.9674,88.939832 444.43838,89.062692 C 445.19602,89.287941 446.00486,89.400564 446.86491,89.400562 C 448.95355,89.400564 450.77088,88.591723 452.31691,86.974036 C 453.86291,85.356358 454.63591,83.441759 454.63593,81.230234 C 454.63591,79.612562 454.27757,78.035833 453.56089,76.500044 C 453.02847,75.353347 452.44487,74.483075 451.81011,73.889225 C 450.92958,73.070163 449.72143,72.327872 448.18568,71.66235 C 446.64989,70.996867 445.0834,70.664116 443.4862,70.664095 L 442.5033,70.664095 L 442.5033,69.74263 C 444.12098,69.537881 445.74378,68.954287 447.37171,67.991845 C 448.99962,67.02945 450.18217,65.8725 450.91936,64.520991 C 451.65651,63.169537 452.0251,61.684955 452.02512,60.067241 C 452.0251,57.958142 451.36471,56.253432 450.04396,54.953107 C 448.72318,53.652854 447.0799,53.00271 445.11412,53.002672 C 441.94018,53.00271 439.28841,54.7023 437.1588,58.101448 L 436.14519,57.609999 z "
       id="text6380" />
    <path
       style="font-size:62.90538406px;font-style:normal;font-variant:normal;font-weight:normal;font-stretch:normal;text-align:center;line-height:100%;writing-mode:lr-tb;text-anchor:middle;fill:black;fill-opacity:1;stroke:none;stroke-width:1px;stroke-linecap:butt;stroke-linejoin:miter;stroke-opacity:1;font-family:Times New Roman"
       d="M 95.274594,170.52318 L 95.274594,174.88478 L 89.684369,174.88478 L 89.684369,185.88094 L 84.616309,185.88094 L 84.616309,174.88478 L 66.9856,174.88478 L 66.9856,170.95319 L 86.305662,143.37066 L 89.684369,143.37066 L 89.684369,170.52318 L 95.274594,170.52318 z M 84.616309,170.52318 L 84.616309,149.85163 L 69.995721,170.52318 L 84.616309,170.52318 z "
       id="text6384" />
    <path
       style="font-size:62.90538406px;font-style:normal;font-variant:normal;font-weight:normal;font-stretch:normal;text-align:center;line-height:100%;writing-mode:lr-tb;text-anchor:middle;fill:black;fill-opacity:1;stroke:none;stroke-width:1px;stroke-linecap:butt;stroke-linejoin:miter;stroke-opacity:1;font-family:Times New Roman"
       d="M 267.42191,144.23069 L 265.0261,149.45233 L 252.49417,149.45233 L 249.76049,155.04255 C 255.18688,155.84119 259.48705,157.85817 262.66101,161.09351 C 265.38443,163.87841 266.74615,167.15473 266.74617,170.92248 C 266.74615,173.11353 266.30077,175.14075 265.41005,177.00415 C 264.51927,178.86757 263.39816,180.45453 262.0467,181.76506 C 260.69519,183.07559 259.19014,184.13015 257.53152,184.92875 C 255.17665,186.05499 252.76036,186.61811 250.28265,186.61811 C 247.78445,186.61811 245.96712,186.19321 244.83065,185.34341 C 243.69417,184.49362 243.12593,183.5568 243.12594,182.53294 C 243.12593,181.95959 243.36142,181.45279 243.83239,181.01253 C 244.30336,180.57228 244.89719,180.35215 245.6139,180.35214 C 246.14629,180.35215 246.61214,180.43406 247.01145,180.59787 C 247.41075,180.76169 248.09161,181.18147 249.05403,181.8572 C 250.5898,182.92201 252.14605,183.45441 253.72279,183.45441 C 256.11859,183.45441 258.2226,182.54831 260.03483,180.73609 C 261.84703,178.92388 262.75313,176.71748 262.75315,174.11689 C 262.75313,171.59823 261.94429,169.2485 260.32663,167.06768 C 258.70893,164.8869 256.47693,163.20267 253.63065,162.01498 C 251.39864,161.09354 248.35781,160.56113 244.50814,160.41777 L 252.49417,144.23069 L 267.42191,144.23069 z "
       id="text6388" />
    <path
       style="font-size:62.90538406px;font-style:normal;font-variant:normal;font-weight:normal;font-stretch:normal;text-align:center;line-height:100%;writing-mode:lr-tb;text-anchor:middle;fill:black;fill-opacity:1;stroke:none;stroke-width:1px;stroke-linecap:butt;stroke-linejoin:miter;stroke-opacity:1;font-family:Times New Roman"
       d="M 461.14762,143.37066 L 461.14762,144.50713 C 458.44463,144.77337 456.23824,145.31089 454.52843,146.1197 C 452.81858,146.92858 451.12923,148.16232 449.46037,149.82092 C 447.79148,151.47959 446.40928,153.32764 445.31377,155.36507 C 444.21824,157.40256 443.3019,159.82396 442.56474,162.62929 C 445.51341,160.60209 448.47234,159.58848 451.44152,159.58845 C 454.2878,159.58848 456.75528,160.73519 458.84396,163.02859 C 460.93259,165.32204 461.97691,168.27072 461.97694,171.87466 C 461.97691,175.35576 460.92235,178.5297 458.81325,181.39647 C 456.27407,184.87756 452.91585,186.61811 448.73856,186.61811 C 445.89224,186.61811 443.47595,185.67617 441.48969,183.79228 C 437.59906,180.1269 435.65374,175.37624 435.65374,169.54028 C 435.65374,165.81348 436.40115,162.27096 437.89598,158.91271 C 439.39079,155.55451 441.52552,152.57511 444.30016,149.97449 C 447.07478,147.37395 449.73167,145.62317 452.27084,144.72214 C 454.80997,143.82119 457.17506,143.3707 459.36612,143.37066 L 461.14762,143.37066 z M 442.04257,164.87152 C 441.67398,167.63594 441.48968,169.86793 441.48969,171.5675 C 441.48968,173.53331 441.85315,175.66804 442.58009,177.97169 C 443.30702,180.27536 444.38718,182.10293 445.82058,183.45441 C 446.86489,184.41683 448.13447,184.89804 449.62931,184.89804 C 451.41079,184.89804 453.00287,184.05848 454.40557,182.37937 C 455.80822,180.70026 456.50956,178.30445 456.50958,175.19193 C 456.50956,171.69038 455.81334,168.65978 454.42093,166.10014 C 453.02847,163.54054 451.05244,162.26072 448.49283,162.2607 C 447.71469,162.26072 446.88025,162.42454 445.98952,162.75215 C 445.09875,163.0798 443.78311,163.78626 442.04257,164.87152 L 442.04257,164.87152 z "
       id="text6392" />
    <path
       style="font-size:62.90538406px;font-style:normal;font-variant:normal;font-weight:normal;font-stretch:normal;text-align:center;line-height:100%;writing-mode:lr-tb;text-anchor:middle;fill:black;fill-opacity:1;stroke:none;stroke-width:1px;stroke-linecap:butt;stroke-linejoin:miter;stroke-opacity:1;font-family:Times New Roman"
       d="M 61.096992,237.8399 L 83.427175,237.8399 L 83.427175,239.00709 L 69.54376,280.35018 L 66.103622,280.35018 L 78.543407,242.84653 L 67.086518,242.84653 C 64.772606,242.84656 63.124208,243.123 62.14132,243.67585 C 60.421245,244.61782 59.039048,246.07169 57.994725,248.03745 L 57.103975,247.69958 L 61.096992,237.8399 z "
       id="text6396" />
    <path
       style="font-size:62.90538406px;font-style:normal;font-variant:normal;font-weight:normal;font-stretch:normal;text-align:center;line-height:100%;writing-mode:lr-tb;text-anchor:middle;fill:black;fill-opacity:1;stroke:none;stroke-width:1px;stroke-linecap:butt;stroke-linejoin:miter;stroke-opacity:1;font-family:Times New Roman"
       d="M 264.35624,258.51144 C 261.05943,255.8085 258.93494,253.63794 257.98277,251.99975 C 257.03058,250.36162 256.55449,248.66203 256.55449,246.90098 C 256.55449,244.19805 257.59882,241.86879 259.68748,239.9132 C 261.77612,237.95768 264.55076,236.97991 268.01138,236.97986 C 271.36959,236.97991 274.07256,237.89113 276.12028,239.71354 C 278.16796,241.53604 279.19181,243.61445 279.19183,245.9488 C 279.19181,247.50508 278.63893,249.09205 277.53319,250.7097 C 276.42741,252.32741 274.12375,254.23177 270.6222,256.42279 C 274.22613,259.20768 276.6117,261.39872 277.77892,262.99591 C 279.33514,265.08458 280.11327,267.28586 280.1133,269.59975 C 280.11327,272.52797 278.99727,275.03128 276.76531,277.10969 C 274.53329,279.18811 271.60508,280.22731 267.98067,280.22732 C 264.02859,280.22731 260.9468,278.98846 258.7353,276.51074 C 256.97427,274.52447 256.09376,272.35391 256.09376,269.99905 C 256.09376,268.15613 256.71319,266.32856 257.95205,264.51633 C 259.1909,262.70413 261.32563,260.7025 264.35624,258.51144 L 264.35624,258.51144 z M 269.17857,255.22488 C 271.6358,253.01339 273.19205,251.26773 273.84733,249.98789 C 274.50257,248.7081 274.83021,247.25936 274.83023,245.64164 C 274.83021,243.49159 274.22613,241.80736 273.01801,240.58894 C 271.80985,239.3706 270.16145,238.7614 268.07281,238.76136 C 265.98415,238.7614 264.28455,239.36548 262.97404,240.57358 C 261.6635,241.78176 261.00824,243.19467 261.00824,244.81232 C 261.00824,245.87716 261.27956,246.94196 261.82221,248.00674 C 262.36484,249.07157 263.13784,250.08518 264.14123,251.04757 L 269.17857,255.22488 z M 265.79987,259.67863 C 264.10026,261.11204 262.84093,262.67341 262.02186,264.36275 C 261.20277,266.05212 260.79323,267.87969 260.79324,269.84547 C 260.79323,272.48701 261.51504,274.60126 262.95868,276.18822 C 264.4023,277.77519 266.24011,278.56868 268.47212,278.56868 C 270.68361,278.56868 272.45487,277.94413 273.7859,276.69503 C 275.11688,275.44594 275.78239,273.93064 275.78241,272.14913 C 275.78239,270.6748 275.39332,269.35403 274.61522,268.18683 C 273.16133,266.01628 270.22288,263.18022 265.79987,259.67863 L 265.79987,259.67863 z "
       id="text6400" />
    <path
       style="font-size:62.90538406px;font-style:normal;font-variant:normal;font-weight:normal;font-stretch:normal;text-align:center;line-height:100%;writing-mode:lr-tb;text-anchor:middle;fill:black;fill-opacity:1;stroke:none;stroke-width:1px;stroke-linecap:butt;stroke-linejoin:miter;stroke-opacity:1;font-family:Times New Roman"
       d="M 425.03493,280.35018 L 425.03493,279.2137 C 427.69694,279.17275 430.17465,278.55332 432.46809,277.35541 C 434.7615,276.15751 436.97813,274.06374 439.118,271.07409 C 441.25782,268.08446 442.74753,264.7979 443.5871,261.21441 C 440.37219,263.2826 437.46446,264.31669 434.8639,264.31668 C 431.93567,264.31669 429.42724,263.18534 427.33859,260.92261 C 425.24994,258.65992 424.20561,255.65492 424.20561,251.90761 C 424.20561,248.26273 425.24994,245.01713 427.33859,242.17079 C 429.85726,238.71021 433.14382,236.97991 437.19828,236.97986 C 440.61792,236.97991 443.54613,238.39282 445.98291,241.21861 C 448.97253,244.72021 450.46735,249.04085 450.46738,254.18055 C 450.46735,258.80838 449.33088,263.12391 447.05796,267.12715 C 444.78499,271.13041 441.62129,274.4528 437.56686,277.09433 C 434.27005,279.2649 430.67634,280.35018 426.78571,280.35018 L 425.03493,280.35018 z M 444.07855,258.94146 C 444.44712,256.27947 444.63141,254.14986 444.63143,252.55263 C 444.63141,250.56639 444.29354,248.42143 443.61782,246.11773 C 442.94206,243.8141 441.98476,242.04796 440.74592,240.8193 C 439.50704,239.59072 438.09925,238.97641 436.52253,238.97637 C 434.70007,238.97641 433.10286,239.79549 431.73091,241.43361 C 430.35895,243.07181 429.67297,245.50857 429.67297,248.74391 C 429.67297,253.06458 430.58419,256.44329 432.40666,258.88003 C 433.73765,260.64107 435.37581,261.52158 437.32114,261.52156 C 438.26306,261.52158 439.37906,261.29633 440.66913,260.84582 C 441.95916,260.39535 443.09563,259.76056 444.07855,258.94146 L 444.07855,258.94146 z "
       id="text6404" />
    <path
       style="font-size:52.42115402px;font-style:normal;font-variant:normal;font-weight:normal;font-stretch:normal;text-align:center;line-height:100%;writing-mode:lr-tb;text-anchor:middle;fill:black;fill-opacity:1;stroke:none;stroke-width:1px;stroke-linecap:butt;stroke-linejoin:miter;stroke-opacity:1;font-family:Times New Roman"
       d="M 303.68887,87.956933 C 301.28281,89.81693 299.77263,90.891972 299.15833,91.182062 C 298.23686,91.608667 297.25567,91.821969 296.21476,91.821969 C 294.59366,91.821969 293.25839,91.267383 292.20894,90.158212 C 291.1595,89.049042 290.63477,87.590057 290.63477,85.78125 C 290.63477,84.637957 290.89073,83.648236 291.40266,82.812083 C 292.10229,81.651729 293.31811,80.559622 295.05013,79.535761 C 296.78214,78.511923 299.66171,77.266239 303.68887,75.798706 L 303.68887,74.877241 C 303.68886,72.539467 303.31771,70.935436 302.57543,70.065142 C 301.83313,69.194891 300.75382,68.759755 299.33751,68.759733 C 298.26245,68.759755 297.40924,69.049846 296.77788,69.630006 C 296.12943,70.210209 295.80521,70.875711 295.80522,71.626515 L 295.85641,73.111098 C 295.85641,73.896068 295.6559,74.501845 295.2549,74.928433 C 294.85389,75.355053 294.32916,75.568355 293.68073,75.56834 C 293.04935,75.568355 292.53316,75.346521 292.13216,74.902837 C 291.73114,74.459185 291.53064,73.853407 291.53064,73.085502 C 291.53064,71.618002 292.28146,70.269934 293.78312,69.041292 C 295.28476,67.812694 297.39218,67.198385 300.10539,67.198361 C 302.18721,67.198385 303.89363,67.5482 305.22465,68.247807 C 306.23142,68.77682 306.97371,69.604431 307.45152,70.730645 C 307.75866,71.464425 307.91224,72.966071 307.91225,75.235588 L 307.91225,83.196027 C 307.91224,85.43144 307.9549,86.800839 308.04024,87.304228 C 308.12554,87.807625 308.26632,88.144642 308.46257,88.31528 C 308.65879,88.485925 308.88489,88.571246 309.14088,88.571243 C 309.41388,88.571246 309.65278,88.511521 309.85757,88.392069 C 310.2159,88.170238 310.907,87.547396 311.93087,86.523542 L 311.93087,87.956933 C 310.01966,90.51656 308.19379,91.796372 306.45327,91.796373 C 305.61711,91.796372 304.9516,91.506282 304.45676,90.9261 C 303.96188,90.345919 303.70592,89.356197 303.68887,87.956933 L 303.68887,87.956933 z M 303.68887,86.293175 L 303.68887,77.360078 C 301.11217,78.383942 299.44841,79.109169 298.6976,79.535761 C 297.34952,80.286596 296.38539,81.071547 295.80522,81.890618 C 295.22503,82.709707 294.93494,83.605575 294.93495,84.578226 C 294.93494,85.806852 295.30182,86.826435 296.03559,87.636979 C 296.76934,88.447531 297.61401,88.852805 298.56962,88.852802 C 299.86648,88.852805 301.5729,87.999597 303.68887,86.293175 L 303.68887,86.293175 z M 320.07048,71.93367 C 322.34001,68.77682 324.78871,67.198385 327.41661,67.198361 C 329.82264,67.198385 331.92153,68.2265 333.71329,70.282711 C 335.50501,72.338963 336.40087,75.150284 336.4009,78.716681 C 336.40087,82.880348 335.01868,86.233456 332.2543,88.776013 C 329.88236,90.960228 327.23742,92.052335 324.31946,92.052335 C 322.95432,92.052335 321.56785,91.804904 320.16007,91.310044 C 318.75227,90.815183 317.31461,90.072892 315.8471,89.083168 L 315.8471,64.792311 C 315.84709,62.130329 315.7831,60.49217 315.65512,59.877828 C 315.52714,59.26355 315.32664,58.845478 315.05361,58.623611 C 314.78058,58.40181 314.4393,58.290893 314.02976,58.29086 C 313.55196,58.290893 312.95472,58.427406 312.23802,58.7004 L 311.87967,57.804531 L 318.91865,54.937749 L 320.07048,54.937749 L 320.07048,71.93367 z M 320.07048,73.571831 L 320.07048,87.598585 C 320.94074,88.451797 321.84088,89.095969 322.77089,89.531103 C 323.70087,89.966241 324.6522,90.183809 325.62487,90.183808 C 327.1777,90.183809 328.62388,89.330601 329.96344,87.624181 C 331.30296,85.917769 331.97272,83.434934 331.97274,80.175668 C 331.97272,77.172387 331.30296,74.864459 329.96344,73.251878 C 328.62388,71.639332 327.10091,70.833051 325.3945,70.83303 C 324.49009,70.833051 323.58569,71.063417 322.6813,71.52413 C 321.99872,71.865433 321.12845,72.547999 320.07048,73.571831 L 320.07048,73.571831 z M 359.77029,82.428139 C 359.1389,85.516761 357.90174,87.892946 356.05883,89.556699 C 354.21589,91.220457 352.17672,92.052335 349.94133,92.052335 C 347.2793,92.052335 344.95858,90.934632 342.97914,88.699224 C 340.99969,86.463822 340.00997,83.443466 340.00997,79.638146 C 340.00997,75.952299 341.10634,72.957539 343.29909,70.653857 C 345.49183,68.350216 348.12398,67.198385 351.19554,67.198361 C 353.49919,67.198385 355.39331,67.808428 356.87791,69.028494 C 358.36248,70.248603 359.10477,71.515617 359.10479,72.829539 C 359.10477,73.477996 358.89573,74.002719 358.47768,74.40371 C 358.05959,74.804734 357.47514,75.005238 356.72434,75.005222 C 355.71753,75.005238 354.95818,74.681019 354.44627,74.032564 C 354.15616,73.674234 353.96419,72.991667 353.87035,71.984862 C 353.77648,70.978096 353.43093,70.210209 352.8337,69.681198 C 352.23644,69.169295 351.40883,68.913333 350.35087,68.91331 C 348.64444,68.913333 347.27077,69.544707 346.22987,70.807434 C 344.84766,72.479742 344.15656,74.689551 344.15657,77.436867 C 344.15656,80.235403 344.8434,82.705441 346.21707,84.846986 C 347.59073,86.988545 349.44645,88.059321 351.78426,88.059318 C 353.45653,88.059321 354.95818,87.487672 356.2892,86.344368 C 357.22771,85.559422 358.14064,84.134564 359.028,82.069791 L 359.77029,82.428139 z "
       id="text6426" />
    <path
       style="font-size:52.42115402px;font-style:normal;font-variant:normal;font-weight:normal;font-stretch:normal;text-align:center;line-height:100%;writing-mode:lr-tb;text-anchor:middle;fill:black;fill-opacity:1;stroke:none;stroke-width:1px;stroke-linecap:butt;stroke-linejoin:miter;stroke-opacity:1;font-family:Times New Roman"
       d="M 493.30603,88.699224 C 492.16272,89.893718 491.04501,90.751192 489.95292,91.271649 C 488.8608,91.792106 487.68338,92.052335 486.42064,92.052335 C 483.861,92.052335 481.6256,90.981559 479.71442,88.840004 C 477.80323,86.698454 476.84763,83.946858 476.84764,80.585208 C 476.84763,77.223579 477.90561,74.147764 480.02157,71.357754 C 482.13752,68.567784 484.85926,67.172788 488.18678,67.172764 C 490.25153,67.172788 491.95795,67.829759 493.30603,69.143677 L 493.30603,64.817908 C 493.30602,62.138861 493.24203,60.49217 493.11406,59.877828 C 492.98606,59.26355 492.78556,58.845478 492.51255,58.623611 C 492.23951,58.40181 491.89822,58.290893 491.4887,58.29086 C 491.04501,58.290893 490.4563,58.427406 489.72256,58.7004 L 489.38981,57.804531 L 496.37759,54.937749 L 497.52942,54.937749 L 497.52942,82.044195 C 497.5294,84.791534 497.59339,86.468088 497.72139,87.073862 C 497.84935,87.679644 498.05412,88.101982 498.3357,88.340877 C 498.61724,88.579778 498.94572,88.699227 499.32116,88.699224 C 499.78187,88.699227 500.39618,88.554182 501.16409,88.264088 L 501.44565,89.159957 L 494.48346,92.052335 L 493.30603,92.052335 L 493.30603,88.699224 z M 493.30603,86.907486 L 493.30603,74.826048 C 493.20363,73.665702 492.89648,72.607724 492.38457,71.652111 C 491.87263,70.696538 491.19433,69.975577 490.34967,69.489226 C 489.50497,69.00292 488.68163,68.759755 487.87963,68.759733 C 486.37797,68.759755 485.03843,69.43379 483.86101,70.781838 C 482.30816,72.556531 481.53175,75.150284 481.53175,78.563103 C 481.53175,82.010076 482.28257,84.650755 483.78422,86.485147 C 485.28586,88.31955 486.95815,89.236748 488.80109,89.236746 C 490.35392,89.236748 491.85556,88.460329 493.30603,86.907486 L 493.30603,86.907486 z M 506.89765,76.720172 C 506.88058,80.201275 507.72526,82.931541 509.43168,84.910977 C 511.13809,86.890426 513.14313,87.880147 515.44681,87.880144 C 516.98257,87.880147 518.31784,87.457809 519.45262,86.613129 C 520.58737,85.768458 521.5387,84.32227 522.3066,82.274562 L 523.10009,82.786487 C 522.74172,85.124285 521.70081,87.25304 519.97734,89.172755 C 518.25385,91.092476 516.09523,92.052335 513.50149,92.052335 C 510.68589,92.052335 508.27558,90.955962 506.27054,88.763215 C 504.2655,86.570473 503.26298,83.622639 503.26298,79.919705 C 503.26298,75.909639 504.2911,72.782631 506.34733,70.538673 C 508.40356,68.294757 510.98451,67.172788 514.0902,67.172764 C 516.71807,67.172788 518.87669,68.038795 520.56606,69.770785 C 522.25539,71.502819 523.10007,73.819279 523.10009,76.720172 L 506.89765,76.720172 z M 506.89765,75.235588 L 517.75047,75.235588 C 517.66513,73.733958 517.48596,72.67598 517.21295,72.061651 C 516.78633,71.106077 516.15069,70.355254 515.30603,69.80918 C 514.46134,69.263148 513.57827,68.990122 512.65681,68.990099 C 511.24048,68.990122 509.97346,69.540441 508.85577,70.641058 C 507.73806,71.741717 507.08535,73.273226 506.89765,75.235588 L 506.89765,75.235588 z M 535.3607,69.732391 L 535.3607,85.141343 C 535.36069,87.325562 535.59959,88.707759 536.0774,89.287939 C 536.70876,90.038764 537.55344,90.414175 538.61143,90.414174 L 540.73592,90.414174 L 540.73592,91.33564 L 526.73476,91.33564 L 526.73476,90.414174 L 527.78421,90.414174 C 528.46677,90.414175 529.08961,90.243534 529.65273,89.902249 C 530.21585,89.560967 530.60406,89.100235 530.81736,88.520051 C 531.03066,87.939872 531.13731,86.813637 531.13732,85.141343 L 531.13732,69.732391 L 526.58118,69.732391 L 526.58118,67.88946 L 531.13732,67.88946 L 531.13732,66.353684 C 531.13731,64.015919 531.51272,62.036476 532.26355,60.41535 C 533.01437,58.794286 534.16193,57.484611 535.70625,56.486323 C 537.25055,55.488104 538.98682,54.988978 540.91509,54.988941 C 542.70681,54.988978 544.3535,55.569159 545.85517,56.729487 C 546.84487,57.497409 547.33973,58.359149 547.33975,59.31471 C 547.33973,59.826667 547.1179,60.30873 546.67425,60.760899 C 546.23056,61.21313 545.75276,61.43923 545.24086,61.439201 C 544.84836,61.43923 544.43456,61.298451 543.99944,61.016862 C 543.56429,60.735334 543.03103,60.129556 542.39967,59.199527 C 541.76828,58.269563 541.1881,57.642455 540.65913,57.318202 C 540.13012,56.994017 539.54141,56.831907 538.89299,56.831873 C 538.10802,56.831907 537.44252,57.040943 536.89648,57.458981 C 536.35041,57.877087 535.95794,58.525525 535.71905,59.404297 C 535.48014,60.283134 535.36069,62.548401 535.3607,66.200106 L 535.3607,67.88946 L 541.40142,67.88946 L 541.40142,69.732391 L 535.3607,69.732391 z "
       id="text6430" />
    <path
       style="font-size:52.42115402px;font-style:normal;font-variant:normal;font-weight:normal;font-stretch:normal;text-align:center;line-height:100%;writing-mode:lr-tb;text-anchor:middle;fill:black;fill-opacity:1;stroke:none;stroke-width:1px;stroke-linecap:butt;stroke-linejoin:miter;stroke-opacity:1;font-family:Times New Roman"
       d="M 125.42919,177.33178 C 123.99579,176.63216 122.89516,175.65524 122.12727,174.40101 C 121.35938,173.14681 120.97544,171.76034 120.97544,170.24162 C 120.97544,167.92091 121.84998,165.9244 123.59906,164.25209 C 125.34813,162.57982 127.5878,161.74368 130.31808,161.74366 C 132.55347,161.74368 134.49025,162.28973 136.12843,163.38182 L 141.09411,163.38182 C 141.82784,163.38184 142.25445,163.40317 142.37392,163.44581 C 142.49335,163.48849 142.57867,163.56101 142.62988,163.66338 C 142.73224,163.81698 142.78344,164.09 142.78346,164.48246 C 142.78344,164.92615 142.74078,165.2333 142.65548,165.40392 C 142.60426,165.48926 142.51468,165.55752 142.38672,165.60869 C 142.25871,165.65991 141.82784,165.6855 141.09411,165.68548 L 138.04815,165.68548 C 139.00372,166.91412 139.48152,168.48402 139.48154,170.39519 C 139.48152,172.57942 138.64538,174.44795 136.97311,176.00078 C 135.3008,177.55363 133.05686,178.33004 130.24129,178.33004 C 129.08091,178.33004 127.89496,178.1594 126.68341,177.81811 C 125.93258,178.46656 125.42492,179.03394 125.16043,179.52026 C 124.89593,180.0066 124.76368,180.4204 124.76369,180.76168 C 124.76368,181.05178 124.90446,181.33334 125.18603,181.60636 C 125.46758,181.87939 126.0179,182.07563 126.83699,182.19507 C 127.31477,182.26333 128.50927,182.32306 130.42046,182.37425 C 133.93567,182.45957 136.21373,182.57902 137.25467,182.73259 C 138.84161,182.95443 140.10863,183.54315 141.05571,184.49874 C 142.00275,185.45433 142.47628,186.63176 142.47631,188.03102 C 142.47628,189.95927 141.57188,191.76807 139.7631,193.45743 C 137.10107,195.94879 133.62851,197.19447 129.34542,197.19449 C 126.05203,197.19447 123.27057,196.45218 121.00104,194.96761 C 119.72122,194.11439 119.08132,193.22706 119.08132,192.3056 C 119.08132,191.89605 119.17517,191.48651 119.36288,191.07698 C 119.65297,190.4456 120.25021,189.56679 121.15462,188.44056 C 121.27406,188.28698 122.14433,187.36552 123.76543,185.67617 C 122.87809,185.14718 122.25098,184.67365 121.88411,184.25557 C 121.51723,183.8375 121.33379,183.36397 121.33379,182.83498 C 121.33379,182.23774 121.57695,181.53811 122.06328,180.73609 C 122.54961,179.93408 123.67158,178.79931 125.42919,177.33178 L 125.42919,177.33178 z M 129.88294,162.97228 C 128.62018,162.9723 127.5622,163.47569 126.70901,164.48246 C 125.85579,165.48926 125.42918,167.03357 125.42919,169.11538 C 125.42918,171.81154 126.00937,173.90189 127.16974,175.38647 C 128.05707,176.51271 129.1833,177.07583 130.54845,177.07582 C 131.84531,177.07583 132.91182,176.5895 133.74798,175.61683 C 134.58411,174.64419 135.00218,173.11694 135.0022,171.0351 C 135.00218,168.32191 134.41347,166.19743 133.23605,164.66163 C 132.36577,163.53542 131.24806,162.9723 129.88294,162.97228 L 129.88294,162.97228 z M 125.17323,185.88094 C 124.37121,186.75121 123.76543,187.56176 123.35589,188.31258 C 122.94635,189.0634 122.74158,189.7545 122.74158,190.38588 C 122.74158,191.20495 123.23644,191.92165 124.22617,192.53596 C 125.93258,193.59394 128.39835,194.12293 131.62349,194.12293 C 134.69502,194.12293 136.96029,193.58114 138.4193,192.49757 C 139.87826,191.41399 140.60776,190.25789 140.60778,189.02928 C 140.60776,188.14194 140.17262,187.51056 139.30237,187.13515 C 138.41501,186.75974 136.6574,186.53791 134.02954,186.46965 C 130.19009,186.36726 127.23799,186.17103 125.17323,185.88094 L 125.17323,185.88094 z M 152.25408,149.48304 L 152.25408,166.63254 C 154.14819,164.55073 155.64984,163.21546 156.75902,162.62673 C 157.86818,162.03804 158.97735,161.74368 160.08654,161.74366 C 161.41753,161.74368 162.56082,162.11056 163.51644,162.8443 C 164.47201,163.57808 165.18017,164.72991 165.64093,166.29979 C 165.96512,167.39192 166.12723,169.38842 166.12726,172.28932 L 166.12726,180.58251 C 166.12723,182.0671 166.24668,183.08241 166.4856,183.62846 C 166.65622,184.03801 166.94631,184.36223 167.35588,184.60112 C 167.76539,184.84002 168.51622,184.95947 169.60835,184.95947 L 169.60835,185.88094 L 158.09003,185.88094 L 158.09003,184.95947 L 158.62755,184.95947 C 159.71964,184.95947 160.479,184.7931 160.90562,184.46034 C 161.3322,184.12759 161.63083,183.637 161.80149,182.98856 C 161.85266,182.71553 161.87826,181.91352 161.87828,180.58251 L 161.87828,172.28932 C 161.87826,169.72971 161.74601,168.04889 161.48153,167.24685 C 161.21702,166.44486 160.79468,165.84334 160.21452,165.44232 C 159.63432,165.04133 158.93469,164.84083 158.11562,164.8408 C 157.27947,164.84083 156.40919,165.06266 155.50481,165.50631 C 154.60039,165.95 153.51682,166.84586 152.25408,168.19392 L 152.25408,180.58251 C 152.25407,182.18654 152.34366,183.1848 152.52284,183.57727 C 152.70201,183.96975 153.03476,184.29823 153.52109,184.56273 C 154.00741,184.82722 154.84782,184.95947 156.04233,184.95947 L 156.04233,185.88094 L 144.42162,185.88094 L 144.42162,184.95947 C 145.46254,184.95947 146.28161,184.79736 146.87886,184.47314 C 147.22014,184.3025 147.49317,183.97828 147.69794,183.50048 C 147.90271,183.02269 148.0051,182.05003 148.0051,180.58251 L 148.0051,159.3632 C 148.0051,156.68416 147.9411,155.03747 147.81313,154.42312 C 147.68514,153.80885 147.4889,153.39077 147.22441,153.16891 C 146.95992,152.94711 146.60583,152.83619 146.16217,152.83616 C 145.80382,152.83619 145.22364,152.9727 144.42162,153.2457 L 144.06327,152.34983 L 151.07665,149.48304 L 152.25408,149.48304 z M 177.54319,149.48304 C 178.25988,149.48308 178.86992,149.73478 179.37332,150.23813 C 179.87671,150.74156 180.1284,151.35161 180.12841,152.06827 C 180.1284,152.785 179.87671,153.39931 179.37332,153.9112 C 178.86992,154.42316 178.25988,154.67912 177.54319,154.67909 C 176.82649,154.67912 176.21218,154.42316 175.70026,153.9112 C 175.18833,153.39931 174.93237,152.785 174.93237,152.06827 C 174.93237,151.35161 175.18406,150.74156 175.68746,150.23813 C 176.19085,149.73478 176.80942,149.48308 177.54319,149.48304 L 177.54319,149.48304 z M 179.66768,161.74366 L 179.66768,180.58251 C 179.66767,182.05003 179.77432,183.02695 179.98763,183.51328 C 180.20093,183.99961 180.51661,184.36223 180.9347,184.60112 C 181.35276,184.84002 182.11638,184.95947 183.22556,184.95947 L 183.22556,185.88094 L 171.83522,185.88094 L 171.83522,184.95947 C 172.97852,184.95947 173.74641,184.84855 174.13889,184.62672 C 174.53136,184.40489 174.84278,184.03801 175.07315,183.52608 C 175.30351,183.01416 175.4187,182.03297 175.4187,180.58251 L 175.4187,171.54703 C 175.4187,169.00448 175.34191,167.35779 175.18833,166.60695 C 175.06888,166.06091 174.88117,165.68124 174.62522,165.46791 C 174.36925,165.25463 174.01943,165.14798 173.57577,165.14796 C 173.09797,165.14798 172.51779,165.27596 171.83522,165.5319 L 171.47688,164.61044 L 178.54145,161.74366 L 179.66768,161.74366 z "
       id="text6434" />
    <path
       style="font-size:52.42115402px;font-style:normal;font-variant:normal;font-weight:normal;font-stretch:normal;text-align:center;line-height:100%;writing-mode:lr-tb;text-anchor:middle;fill:black;fill-opacity:1;stroke:none;stroke-width:1px;stroke-linecap:butt;stroke-linejoin:miter;stroke-opacity:1;font-family:Times New Roman"
       d="M 106.9487,258.37322 L 114.16684,255.45525 L 115.1395,255.45525 L 115.1395,260.93285 C 116.35105,258.8681 117.56687,257.42192 118.78697,256.59428 C 120.00705,255.76669 121.29112,255.35289 122.63921,255.35286 C 124.99405,255.35289 126.95642,256.27435 128.52635,258.11726 C 130.45458,260.36975 131.4187,263.30479 131.41873,266.92238 C 131.4187,270.96659 130.25834,274.31117 127.93763,276.95611 C 126.02643,279.12326 123.62038,280.20684 120.71949,280.20684 C 119.45673,280.20684 118.36462,280.02766 117.44317,279.66932 C 116.76059,279.41335 115.9927,278.90143 115.1395,278.13354 L 115.1395,285.2749 C 115.13949,286.87892 115.23761,287.89851 115.43386,288.33365 C 115.63009,288.76878 115.97137,289.11433 116.45771,289.3703 C 116.94403,289.62625 117.8271,289.75424 119.10692,289.75425 L 119.10692,290.70131 L 106.82071,290.70131 L 106.82071,289.75425 L 107.46062,289.75425 C 108.39915,289.7713 109.20117,289.59213 109.86667,289.21672 C 110.19089,289.02901 110.44258,288.72612 110.62176,288.30806 C 110.80093,287.88998 110.89052,286.82773 110.89052,285.12132 L 110.89052,262.95495 C 110.89052,261.43626 110.82226,260.47214 110.68575,260.06258 C 110.54923,259.65306 110.33167,259.3459 110.03305,259.14111 C 109.73442,258.93636 109.32915,258.83398 108.81722,258.83396 C 108.40768,258.83398 107.88722,258.95343 107.25585,259.1923 L 106.9487,258.37322 z M 115.1395,262.44303 L 115.1395,271.19695 C 115.13949,273.09108 115.21628,274.33677 115.36987,274.93401 C 115.60876,275.92373 116.19321,276.79401 117.12321,277.54483 C 118.0532,278.29565 119.22636,278.67106 120.6427,278.67106 C 122.3491,278.67106 123.7313,278.00556 124.78929,276.67455 C 126.17147,274.93401 126.86257,272.4853 126.86259,269.32842 C 126.86257,265.74496 126.07762,262.9891 124.50773,261.06083 C 123.41561,259.72984 122.11873,259.06434 120.6171,259.06432 C 119.79801,259.06434 118.98746,259.26911 118.18546,259.67863 C 117.57114,259.98581 116.55582,260.90727 115.1395,262.44303 L 115.1395,262.44303 z M 155.6072,255.35286 L 155.6072,285.50527 C 155.60718,287.00691 155.70956,287.97103 155.91435,288.39764 C 156.1191,288.82424 156.43905,289.15699 156.87421,289.3959 C 157.30933,289.63479 158.15827,289.75424 159.42104,289.75425 L 159.42104,290.70131 L 147.59557,290.70131 L 147.59557,289.75425 L 148.0819,289.75425 C 149.03747,289.75424 149.7627,289.61772 150.25758,289.34471 C 150.59885,289.15699 150.87187,288.81997 151.07666,288.33365 C 151.28141,287.84732 151.3838,286.90452 151.38381,285.50527 L 151.38381,275.42034 C 149.83096,277.26327 148.47436,278.52175 147.31401,279.19579 C 146.15363,279.86982 144.95061,280.20684 143.70493,280.20684 C 141.43539,280.20684 139.40902,279.17446 137.62582,277.10969 C 135.84261,275.04493 134.95101,272.28053 134.95101,268.8165 C 134.95101,264.84056 136.12844,261.60264 138.4833,259.10272 C 140.83815,256.60284 143.67933,255.35289 147.00685,255.35286 C 147.9795,255.35289 148.87537,255.4894 149.69446,255.7624 C 150.51352,256.03545 151.24728,256.44499 151.89574,256.99102 C 152.88544,256.51325 153.8325,255.9672 154.73693,255.35286 L 155.6072,255.35286 z M 151.38381,273.80777 L 151.38381,262.80138 C 151.3838,261.52158 151.21742,260.5148 150.88469,259.78102 C 150.55192,259.04728 149.95894,258.42444 149.10575,257.91249 C 148.25252,257.40059 147.2884,257.14462 146.21337,257.1446 C 144.30217,257.14462 142.66401,257.95517 141.29889,259.57625 C 139.93374,261.19736 139.25118,263.6546 139.25118,266.94797 C 139.25118,270.10485 139.94654,272.50237 141.33728,274.14052 C 142.728,275.77869 144.40455,276.59777 146.36695,276.59776 C 147.37372,276.59777 148.26959,276.3802 149.05455,275.94506 C 149.83949,275.50993 150.61591,274.7975 151.38381,273.80777 L 151.38381,273.80777 z M 167.919,255.35286 L 167.919,260.62569 C 169.88137,257.1105 171.89494,255.35289 173.95972,255.35286 C 174.89824,255.35289 175.67466,255.63871 176.28898,256.21034 C 176.90328,256.78201 177.21043,257.44325 177.21045,258.19405 C 177.21043,258.85957 176.9886,259.42269 176.54494,259.8834 C 176.10126,260.34415 175.57227,260.57452 174.95798,260.5745 C 174.36072,260.57452 173.69095,260.28016 172.94867,259.69143 C 172.20636,259.10274 171.65605,258.80838 171.29771,258.80836 C 170.99054,258.80838 170.65779,258.97902 170.29946,259.32028 C 169.53156,260.01994 168.73807,261.17177 167.919,262.77578 L 167.919,274.01254 C 167.91899,275.30942 168.0811,276.29061 168.40533,276.95611 C 168.62716,277.41685 169.01963,277.80079 169.58276,278.10794 C 170.14587,278.4151 170.95642,278.56868 172.01441,278.56868 L 172.01441,279.49014 L 160.00976,279.49014 L 160.00976,278.56868 C 161.20425,278.56868 162.09158,278.38097 162.67177,278.00556 C 163.09837,277.73253 163.39699,277.2974 163.56764,276.70015 C 163.65295,276.41006 163.69561,275.58245 163.69562,274.21731 L 163.69562,265.13064 C 163.69561,262.40039 163.64016,260.77502 163.52924,260.25455 C 163.41832,259.73411 163.21355,259.35443 162.91493,259.11551 C 162.61631,258.87664 162.24516,258.75719 161.8015,258.75717 C 161.2725,258.75719 160.67526,258.88517 160.00976,259.14111 L 159.75379,258.21965 L 166.84396,255.35286 L 167.919,255.35286 z M 193.72004,255.35286 L 193.72004,263.3389 L 192.87536,263.3389 C 192.22691,260.83048 191.39503,259.12407 190.37973,258.21965 C 189.3644,257.31527 188.07179,256.86307 186.50189,256.86304 C 185.30739,256.86307 184.34327,257.17875 183.60952,257.81011 C 182.87575,258.4415 182.50887,259.14113 182.50888,259.909 C 182.50887,260.86461 182.7819,261.68369 183.32796,262.36624 C 183.85694,263.06589 184.93198,263.80818 186.55309,264.59312 L 190.29014,266.41045 C 193.75415,268.09982 195.48616,270.32669 195.48618,273.09108 C 195.48616,275.2241 194.67988,276.94332 193.06734,278.24872 C 191.45476,279.55413 189.65022,280.20684 187.65373,280.20684 C 186.22032,280.20684 184.58217,279.95088 182.73924,279.43895 C 182.17612,279.26831 181.71539,279.18299 181.35704,279.18299 C 180.96456,279.18299 180.65741,279.40482 180.43558,279.84849 L 179.5909,279.84849 L 179.5909,271.47851 L 180.43558,271.47851 C 180.91337,273.8675 181.8263,275.66777 183.17438,276.87932 C 184.52244,278.09088 186.03262,278.69666 187.70492,278.69666 C 188.88233,278.69666 189.84219,278.35111 190.5845,277.66001 C 191.32678,276.96891 191.69792,276.13704 191.69794,275.16437 C 191.69792,273.98695 191.28411,272.99723 190.45652,272.19521 C 189.62889,271.3932 187.97793,270.37788 185.50364,269.14925 C 183.02933,267.92064 181.40823,266.81147 180.64035,265.82174 C 179.87246,264.84909 179.48851,263.62047 179.48852,262.13587 C 179.48851,260.20764 180.14975,258.59508 181.47223,257.29818 C 182.79469,256.00133 184.50538,255.35289 186.60428,255.35286 C 187.52573,255.35289 188.64344,255.54913 189.95739,255.94158 C 190.82765,256.19756 191.40783,256.32554 191.69794,256.32552 C 191.97095,256.32554 192.18425,256.26582 192.33784,256.14635 C 192.4914,256.02692 192.67058,255.76243 192.87536,255.35286 L 193.72004,255.35286 z "
       id="text6438" />
    <path
       style="font-size:52.42115402px;font-style:normal;font-variant:normal;font-weight:normal;font-stretch:normal;text-align:center;line-height:100%;writing-mode:lr-tb;text-anchor:middle;fill:black;fill-opacity:1;stroke:none;stroke-width:1px;stroke-linecap:butt;stroke-linejoin:miter;stroke-opacity:1;font-family:Times New Roman"
       d="M 474.79993,166.73493 C 476.50634,165.02853 477.51312,164.04734 477.82029,163.79136 C 478.58817,163.14294 479.41578,162.63955 480.30313,162.28118 C 481.19045,161.92285 482.06925,161.74368 482.93954,161.74366 C 484.40704,161.74368 485.66979,162.17028 486.72779,163.02347 C 487.78575,163.8767 488.49391,165.11385 488.85228,166.73493 C 490.60987,164.68725 492.09445,163.34345 493.30603,162.70352 C 494.51756,162.06363 495.76324,161.74368 497.04309,161.74366 C 498.28874,161.74368 499.39364,162.06363 500.3578,162.70352 C 501.32189,163.34345 502.08551,164.38863 502.64867,165.83906 C 503.02404,166.8288 503.21175,168.38164 503.21179,170.49758 L 503.21179,180.58251 C 503.21175,182.05003 503.32267,183.05682 503.54454,183.60287 C 503.71514,183.97828 504.03083,184.29823 504.4916,184.56273 C 504.95229,184.82722 505.70312,184.95947 506.74407,184.95947 L 506.74407,185.88094 L 495.17456,185.88094 L 495.17456,184.95947 L 495.66089,184.95947 C 496.66764,184.95947 497.4526,184.76323 498.01574,184.37076 C 498.40819,184.09773 498.68975,183.66259 498.86042,183.06535 C 498.92864,182.77526 498.96277,181.94765 498.96281,180.58251 L 498.96281,170.49758 C 498.96277,168.58641 498.73241,167.23834 498.27171,166.45337 C 497.60617,165.36128 496.53966,164.81523 495.07217,164.81521 C 494.16774,164.81523 493.25908,165.04133 492.34617,165.49351 C 491.43321,165.94573 490.32831,166.78614 489.03145,168.01474 L 488.98026,168.2963 L 489.03145,169.39694 L 489.03145,180.58251 C 489.03143,182.18654 489.12102,183.1848 489.30022,183.57727 C 489.47937,183.96975 489.81638,184.29823 490.31127,184.56273 C 490.8061,184.82722 491.65078,184.95947 492.8453,184.95947 L 492.8453,185.88094 L 480.99423,185.88094 L 480.99423,184.95947 C 482.29109,184.95947 483.18269,184.80589 483.66904,184.49874 C 484.15535,184.19158 484.49237,183.73085 484.68009,183.11654 C 484.76539,182.82645 484.80805,181.98177 484.80807,180.58251 L 484.80807,170.49758 C 484.80805,168.58641 484.52649,167.21274 483.96339,166.37658 C 483.21255,165.28449 482.16311,164.73844 480.81505,164.73842 C 479.89357,164.73844 478.98064,164.98587 478.07625,165.48071 C 476.65992,166.23155 475.56781,167.07623 474.79993,168.01474 L 474.79993,180.58251 C 474.79992,182.11829 474.90657,183.11654 475.11988,183.57727 C 475.33318,184.03801 475.64886,184.38356 476.06695,184.61392 C 476.48501,184.84429 477.33395,184.95947 478.61377,184.95947 L 478.61377,185.88094 L 467.01867,185.88094 L 467.01867,184.95947 C 468.09371,184.95947 468.84453,184.84429 469.27114,184.61392 C 469.69774,184.38356 470.02196,184.01668 470.24379,183.51328 C 470.46562,183.00989 470.57654,182.03297 470.57655,180.58251 L 470.57655,171.62382 C 470.57654,169.04714 470.49975,167.38339 470.34618,166.63254 C 470.22673,166.06945 470.03902,165.68124 469.78306,165.46791 C 469.5271,165.25463 469.17728,165.14798 468.73362,165.14796 C 468.25582,165.14798 467.68417,165.27596 467.01867,165.5319 L 466.63472,164.61044 L 473.69929,161.74366 L 474.79993,161.74366 L 474.79993,166.73493 z M 515.42121,166.70933 C 518.16853,163.3989 520.78788,161.74368 523.27926,161.74366 C 524.55905,161.74368 525.65969,162.06363 526.58118,162.70352 C 527.50262,163.34345 528.23638,164.39716 528.78246,165.86466 C 529.15785,166.88852 529.34555,168.45843 529.34557,170.57437 L 529.34557,180.58251 C 529.34555,182.0671 529.465,183.07388 529.70392,183.60287 C 529.8916,184.02947 530.19449,184.36223 530.61259,184.60112 C 531.03064,184.84002 531.80279,184.95947 532.92905,184.95947 L 532.92905,185.88094 L 521.33394,185.88094 L 521.33394,184.95947 L 521.82027,184.95947 C 522.91236,184.95947 523.67598,184.7931 524.11114,184.46034 C 524.54626,184.12759 524.84915,183.637 525.01981,182.98856 C 525.08804,182.7326 525.12217,181.93058 525.12219,180.58251 L 525.12219,170.98391 C 525.12217,168.8509 524.84488,167.30233 524.29031,166.33819 C 523.73571,165.37408 522.80145,164.89202 521.48752,164.892 C 519.45687,164.89202 517.43477,166.00119 515.42121,168.21951 L 515.42121,180.58251 C 515.4212,182.16948 515.51505,183.15067 515.70276,183.52608 C 515.94165,184.02094 516.27014,184.38356 516.68822,184.61392 C 517.10628,184.84429 517.95522,184.95947 519.23505,184.95947 L 519.23505,185.88094 L 507.63994,185.88094 L 507.63994,184.95947 L 508.15187,184.95947 C 509.34636,184.95947 510.15264,184.65658 510.57071,184.0508 C 510.98878,183.44503 511.19782,182.28893 511.19782,180.58251 L 511.19782,171.87978 C 511.19782,169.06421 511.13383,167.34926 511.00585,166.73493 C 510.87786,166.12064 510.68163,165.70257 510.41714,165.48071 C 510.15264,165.2589 509.79856,165.14798 509.35489,165.14796 C 508.87709,165.14798 508.30544,165.27596 507.63994,165.5319 L 507.256,164.61044 L 514.32057,161.74366 L 515.42121,161.74366 L 515.42121,166.70933 z M 546.2647,161.74366 C 549.81404,161.74368 552.66375,163.09175 554.81386,165.78787 C 556.6397,168.09155 557.55263,170.73649 557.55266,173.72271 C 557.55263,175.82161 557.04924,177.9461 556.04248,180.09618 C 555.03567,182.24627 553.64921,183.86736 551.88309,184.95947 C 550.11693,186.05158 548.15028,186.59763 545.98315,186.59763 C 542.45085,186.59763 539.6438,185.18984 537.56197,182.37425 C 535.80436,180.00233 534.92556,177.34032 534.92556,174.38821 C 534.92556,172.23814 535.45881,170.10085 536.52533,167.97635 C 537.59183,165.85188 538.99536,164.28197 540.73591,163.26663 C 542.47645,162.25134 544.31938,161.74368 546.2647,161.74366 L 546.2647,161.74366 z M 545.47122,163.40741 C 544.56681,163.40744 543.65814,163.6762 542.74522,164.2137 C 541.83228,164.75124 541.09425,165.69403 540.53114,167.04208 C 539.96802,168.39017 539.68646,170.12218 539.68646,172.23813 C 539.68646,175.65097 540.36476,178.59454 541.72137,181.06884 C 543.07796,183.54315 544.86543,184.7803 547.08379,184.7803 C 548.73899,184.7803 550.10413,184.09773 551.17919,182.73259 C 552.25421,181.36747 552.79173,179.02114 552.79175,175.69362 C 552.79173,171.52998 551.89586,168.25366 550.10414,165.86466 C 548.89257,164.22652 547.34827,163.40744 545.47122,163.40741 L 545.47122,163.40741 z "
       id="text6442" />
    <path
       style="font-size:52.42115402px;font-style:normal;font-variant:normal;font-weight:normal;font-stretch:normal;text-align:center;line-height:100%;writing-mode:lr-tb;text-anchor:middle;fill:black;fill-opacity:1;stroke:none;stroke-width:1px;stroke-linecap:butt;stroke-linejoin:miter;stroke-opacity:1;font-family:Times New Roman"
       d="M 307.66913,149.45745 C 308.40288,149.45748 309.02572,149.71345 309.53766,150.22534 C 310.04957,150.7373 310.30554,151.36014 310.30555,152.09386 C 310.30554,152.81059 310.04957,153.4249 309.53766,153.93679 C 309.02572,154.44875 308.40288,154.70471 307.66913,154.70468 C 306.95243,154.70471 306.33812,154.44875 305.8262,153.93679 C 305.31427,153.4249 305.05831,152.81059 305.05831,152.09386 C 305.05831,151.36014 305.31427,150.7373 305.8262,150.22534 C 306.33812,149.71345 306.95243,149.45748 307.66913,149.45745 L 307.66913,149.45745 z M 309.87041,161.74366 L 309.87041,185.34341 C 309.8704,189.35349 309.01719,192.33119 307.31078,194.27651 C 305.60436,196.22182 303.38602,197.19447 300.65575,197.19449 C 299.10291,197.19447 297.95108,196.91292 297.20026,196.34981 C 296.44944,195.78668 296.07403,195.2065 296.07402,194.60926 C 296.07403,194.01201 296.28306,193.50008 296.70113,193.07349 C 297.1192,192.64688 297.6098,192.43357 298.17291,192.43358 C 298.61658,192.43357 299.06879,192.54449 299.52952,192.76633 C 299.81961,192.88577 300.37846,193.31664 301.20607,194.05894 C 302.03368,194.80123 302.72905,195.17237 303.29217,195.17238 C 303.7017,195.17237 304.10271,195.01453 304.49519,194.69885 C 304.88766,194.38315 305.17775,193.85416 305.36547,193.11188 C 305.55317,192.36958 305.64702,190.76129 305.64702,188.28698 L 305.64702,171.59822 C 305.64702,169.02154 305.57023,167.36632 305.41666,166.63254 C 305.2972,166.06945 305.1095,165.68124 304.85354,165.46791 C 304.59757,165.25463 304.24776,165.14798 303.80409,165.14796 C 303.32629,165.14798 302.74611,165.27596 302.06355,165.5319 L 301.7052,164.61044 L 308.76977,161.74366 L 309.87041,161.74366 z M 323.20606,149.48304 L 323.20606,172.82684 L 329.16999,167.37483 C 330.43273,166.21449 331.16649,165.48073 331.37127,165.17356 C 331.50777,164.96881 331.57603,164.76404 331.57604,164.55925 C 331.57603,164.21798 331.43525,163.92363 331.1537,163.67617 C 330.87213,163.42877 330.40713,163.28799 329.75871,163.25384 L 329.75871,162.43476 L 339.94602,162.43476 L 339.94602,163.25384 C 338.54674,163.28799 337.38211,163.50129 336.45213,163.89374 C 335.52211,164.28624 334.50253,164.98587 333.39338,165.99264 L 327.37825,171.54703 L 333.39338,179.14912 C 335.06565,181.24802 336.19188,182.57902 336.77208,183.14214 C 337.59114,183.94415 338.30784,184.46461 338.92217,184.70351 C 339.34875,184.87415 340.09104,184.95947 341.14905,184.95947 L 341.14905,185.88094 L 329.75871,185.88094 L 329.75871,184.95947 C 330.40713,184.94241 330.84653,184.84429 331.07692,184.66511 C 331.30726,184.48594 331.42245,184.23424 331.42246,183.91002 C 331.42245,183.51755 331.08116,182.88618 330.39861,182.0159 L 323.20606,172.82684 L 323.20606,180.6081 C 323.20605,182.12682 323.31271,183.12507 323.52602,183.60287 C 323.73931,184.08067 324.0422,184.42195 324.43468,184.62672 C 324.82715,184.83149 325.68036,184.94241 326.99431,184.95947 L 326.99431,185.88094 L 315.06645,185.88094 L 315.06645,184.95947 C 316.26094,184.95947 317.15681,184.81443 317.75406,184.52433 C 318.1124,184.33663 318.38543,184.04654 318.57314,183.65406 C 318.8291,183.09095 318.95708,182.11829 318.95708,180.73609 L 318.95708,159.3888 C 318.95708,156.67562 318.89735,155.01614 318.77791,154.41033 C 318.65846,153.80458 318.46222,153.38651 318.1892,153.15611 C 317.91616,152.92578 317.55782,152.81059 317.11415,152.81056 C 316.7558,152.81059 316.21828,152.95564 315.50159,153.2457 L 315.06645,152.34983 L 322.02864,149.48304 L 323.20606,149.48304 z M 350.54288,149.48304 L 350.54288,180.58251 C 350.54287,182.05003 350.64952,183.02269 350.86283,183.50048 C 351.07612,183.97828 351.40461,184.3409 351.84829,184.58832 C 352.29194,184.83576 353.11955,184.95947 354.33112,184.95947 L 354.33112,185.88094 L 342.8384,185.88094 L 342.8384,184.95947 C 343.91344,184.95947 344.6472,184.84855 345.03968,184.62672 C 345.43215,184.40489 345.73931,184.03801 345.96114,183.52608 C 346.18297,183.01416 346.29389,182.03297 346.2939,180.58251 L 346.2939,159.28641 C 346.29389,156.6415 346.23417,155.01614 346.11472,154.41033 C 345.99527,153.80458 345.8033,153.39077 345.53881,153.16891 C 345.27431,152.94711 344.93729,152.83619 344.52775,152.83616 C 344.08408,152.83619 343.52096,152.9727 342.8384,153.2457 L 342.40326,152.34983 L 349.39104,149.48304 L 350.54288,149.48304 z "
       id="text6446" />
    <path
       style="font-size:52.42115402px;font-style:normal;font-variant:normal;font-weight:normal;font-stretch:normal;text-align:center;line-height:100%;writing-mode:lr-tb;text-anchor:middle;fill:black;fill-opacity:1;stroke:none;stroke-width:1px;stroke-linecap:butt;stroke-linejoin:miter;stroke-opacity:1;font-family:Times New Roman"
       d="M 300.15661,248.33949 L 300.15661,256.04396 L 305.63421,256.04396 L 305.63421,257.8357 L 300.15661,257.8357 L 300.15661,273.03988 C 300.1566,274.5586 300.37417,275.58245 300.80931,276.11144 C 301.24444,276.64043 301.80329,276.90492 302.48587,276.90492 C 303.04898,276.90492 303.59503,276.73001 304.12403,276.3802 C 304.65301,276.03038 305.06255,275.51419 305.35265,274.83162 L 306.35091,274.83162 C 305.75365,276.50391 304.90897,277.7624 303.81688,278.60707 C 302.72476,279.45175 301.59852,279.87409 300.43817,279.87409 C 299.65321,279.87409 298.88532,279.65652 298.1345,279.22138 C 297.38367,278.78625 296.82909,278.1634 296.47075,277.35285 C 296.1124,276.54231 295.93322,275.29236 295.93323,273.603 L 295.93323,257.8357 L 292.22177,257.8357 L 292.22177,256.99102 C 293.1603,256.61564 294.12015,255.98 295.10135,255.0841 C 296.08253,254.18826 296.95707,253.12601 297.72496,251.89737 C 298.11743,251.24896 298.66349,250.063 299.36313,248.33949 L 300.15661,248.33949 z M 328.44048,256.04396 L 328.44048,270.24989 C 328.44046,272.9631 328.50445,274.62259 328.63246,275.22836 C 328.76041,275.83415 328.96518,276.25648 329.24677,276.49538 C 329.5283,276.73428 329.85679,276.85373 330.23222,276.85373 C 330.76119,276.85373 331.35843,276.70868 332.02396,276.41859 L 332.38231,277.31446 L 325.36893,280.20684 L 324.2171,280.20684 L 324.2171,275.24116 C 322.20351,277.42538 320.66774,278.79904 319.60977,279.36216 C 318.55178,279.92528 317.43408,280.20684 316.25666,280.20684 C 314.94271,280.20684 313.80368,279.82716 312.83956,279.0678 C 311.87543,278.30845 311.20566,277.33153 310.83025,276.13703 C 310.45484,274.94254 310.26713,273.25319 310.26713,271.06897 L 310.26713,260.6001 C 310.26713,259.49095 310.14768,258.72306 309.90879,258.29643 C 309.66988,257.86985 309.3158,257.54137 308.84654,257.31098 C 308.37727,257.08063 307.52833,256.97398 306.29971,256.99102 L 306.29971,256.04396 L 314.51611,256.04396 L 314.51611,271.73447 C 314.51611,273.91869 314.89578,275.35208 315.65515,276.03465 C 316.41449,276.71722 317.33169,277.0585 318.40675,277.0585 C 319.14049,277.0585 319.97237,276.82813 320.90238,276.3674 C 321.83237,275.90667 322.93727,275.02786 324.2171,273.73098 L 324.2171,260.44652 C 324.21708,259.11553 323.97392,258.2154 323.48761,257.74611 C 323.00126,257.27687 321.99021,257.02518 320.45445,256.99102 L 320.45445,256.04396 L 328.44048,256.04396 z M 332.89423,256.04396 L 343.92623,256.04396 L 343.92623,256.99102 L 343.20953,256.99102 C 342.54402,256.99105 342.03636,257.15316 341.68655,257.47735 C 341.33673,257.80159 341.16182,258.23673 341.16183,258.78276 C 341.16182,259.38003 341.34099,260.08819 341.69935,260.90725 L 347.15135,273.85896 L 352.62896,260.42092 C 353.02141,259.46535 353.21765,258.74012 353.21767,258.24524 C 353.21765,258.00636 353.14939,257.81013 353.0129,257.65653 C 352.82517,257.40059 352.58628,257.22568 352.2962,257.1318 C 352.00609,257.03797 351.41738,256.99105 350.53006,256.99102 L 350.53006,256.04396 L 358.18335,256.04396 L 358.18335,256.99102 C 357.29598,257.0593 356.68167,257.23848 356.34041,257.52855 C 355.74314,258.04049 355.20562,258.8937 354.72785,260.08817 L 346.40906,280.20684 L 345.35962,280.20684 L 336.98964,260.42092 C 336.61422,259.49948 336.25587,258.83824 335.91459,258.43721 C 335.57331,258.03623 335.13817,257.69921 334.60918,257.42616 C 334.31909,257.27261 333.74744,257.12756 332.89423,256.99102 L 332.89423,256.04396 z "
       id="text6450" />
    <path
       style="font-size:52.42115402px;font-style:normal;font-variant:normal;font-weight:normal;font-stretch:normal;text-align:center;line-height:100%;writing-mode:lr-tb;text-anchor:middle;fill:black;fill-opacity:1;stroke:none;stroke-width:1px;stroke-linecap:butt;stroke-linejoin:miter;stroke-opacity:1;font-family:Times New Roman"
       d="M 455.89709,256.04396 L 465.72605,256.04396 L 465.72605,256.99102 C 464.82164,257.0593 464.22866,257.22141 463.94711,257.47735 C 463.66554,257.73334 463.52476,258.10022 463.52477,258.57799 C 463.52476,259.107 463.66981,259.74691 463.95991,260.49771 L 468.97678,273.98695 L 474.01924,263.00615 L 472.68824,259.55065 C 472.27868,258.52682 471.74116,257.81866 471.07567,257.42616 C 470.70024,257.18728 470.00061,257.04224 468.97678,256.99102 L 468.97678,256.04396 L 480.13675,256.04396 L 480.13675,256.99102 C 478.90811,257.04224 478.03783,257.26407 477.52593,257.65653 C 477.18463,257.92958 477.01398,258.36471 477.01401,258.96194 C 477.01398,259.30324 477.08224,259.65306 477.21878,260.01138 L 482.5428,273.47502 L 487.48288,260.49771 C 487.82413,259.57627 487.99477,258.84251 487.9948,258.29643 C 487.99477,257.97224 487.8284,257.68215 487.49568,257.42616 C 487.16289,257.17022 486.51019,257.02518 485.53756,256.99102 L 485.53756,256.04396 L 492.93488,256.04396 L 492.93488,256.99102 C 491.45026,257.21288 490.35816,258.21967 489.65856,260.01138 L 481.8261,280.20684 L 480.77666,280.20684 L 474.91511,265.23302 L 468.08091,280.20684 L 467.13385,280.20684 L 459.60854,260.49771 C 459.11368,259.25205 458.62735,258.41164 458.14956,257.97648 C 457.67176,257.54137 456.92093,257.21288 455.89709,256.99102 L 455.89709,256.04396 z M 494.13791,256.04396 L 505.1699,256.04396 L 505.1699,256.99102 C 504.47025,256.99105 503.97966,257.1105 503.69811,257.34937 C 503.41654,257.58829 503.27576,257.90398 503.27577,258.29643 C 503.27576,258.706 503.57439,259.33737 504.17164,260.19056 C 504.35934,260.4636 504.6409,260.89021 505.01632,261.47037 L 506.68008,264.13238 L 508.5998,261.47037 C 509.8284,259.78104 510.44271,258.71453 510.44273,258.27084 C 510.44271,257.91251 510.29767,257.60962 510.00759,257.36217 C 509.71748,257.11476 509.24822,256.99105 508.5998,256.99102 L 508.5998,256.04396 L 516.53464,256.04396 L 516.53464,256.99102 C 515.69847,257.04224 514.97325,257.27261 514.35896,257.68212 C 513.52279,258.26233 512.37949,259.52507 510.92906,261.47037 L 507.72952,265.74495 L 513.56547,274.14052 C 514.99884,276.20529 516.02269,277.44671 516.63702,277.86478 C 517.25131,278.28285 518.04479,278.51749 519.01748,278.56868 L 519.01748,279.49014 L 507.95989,279.49014 L 507.95989,278.56868 C 508.72776,278.56868 509.32501,278.39804 509.75163,278.05675 C 510.07583,277.81786 510.23794,277.50217 510.23796,277.10969 C 510.23794,276.71722 509.69189,275.7275 508.5998,274.14052 L 505.1699,269.12365 L 501.40725,274.14052 C 500.24687,275.69337 499.66669,276.61483 499.6667,276.90492 C 499.66669,277.31446 499.85867,277.68561 500.24262,278.01836 C 500.62655,278.35111 501.20247,278.53455 501.97036,278.56868 L 501.97036,279.49014 L 494.31708,279.49014 L 494.31708,278.56868 C 494.93139,278.48336 495.46891,278.27006 495.92964,277.92877 C 496.57808,277.43391 497.67019,276.17116 499.20597,274.14052 L 504.12045,267.61348 L 499.6667,261.16322 C 498.40395,259.3203 497.42702,258.16421 496.73593,257.69492 C 496.04483,257.22568 495.17882,256.99105 494.13791,256.99102 L 494.13791,256.04396 z M 519.96454,256.04396 L 530.89414,256.04396 L 530.89414,256.99102 L 530.35662,256.99102 C 529.58872,256.99105 529.01281,257.15742 528.62887,257.49015 C 528.24492,257.82292 528.05295,258.23673 528.05296,258.73157 C 528.05295,259.39709 528.33451,260.31856 528.89763,261.49597 L 534.6056,273.32144 L 539.85284,260.36973 C 540.14291,259.67012 540.28795,258.97902 540.28797,258.29643 C 540.28795,257.9893 540.22823,257.75893 540.1088,257.60533 C 539.97227,257.41765 539.75896,257.26834 539.46889,257.1574 C 539.17878,257.04651 538.66686,256.99105 537.93312,256.99102 L 537.93312,256.04396 L 545.5608,256.04396 L 545.5608,256.99102 C 544.9294,257.0593 544.44308,257.19582 544.10182,257.40056 C 543.76051,257.60536 543.3851,257.9893 542.97558,258.5524 C 542.82198,258.79132 542.53189,259.44829 542.10531,260.52331 L 532.5579,283.9183 C 531.63642,286.18783 530.42913,287.90277 528.93603,289.06315 C 527.44291,290.2235 526.00525,290.80368 524.62306,290.80369 C 523.61627,290.80368 522.78866,290.51359 522.14022,289.93342 C 521.49178,289.35323 521.16756,288.68773 521.16756,287.93691 C 521.16756,287.22021 521.40219,286.64429 521.87146,286.20916 C 522.34072,285.77402 522.98489,285.55645 523.80398,285.55646 C 524.36709,285.55645 525.13498,285.74416 526.10764,286.11958 C 526.7902,286.37553 527.2168,286.50351 527.38745,286.50352 C 527.89937,286.50351 528.45822,286.23902 529.06401,285.71004 C 529.66978,285.18104 530.27982,284.15719 530.89414,282.63848 L 532.5579,278.56868 L 524.13673,260.88166 C 523.88076,260.35269 523.47122,259.69572 522.90811,258.91074 C 522.4815,258.31352 522.13169,257.91251 521.85866,257.70772 C 521.46618,257.43472 520.83481,257.19582 519.96454,256.99102 L 519.96454,256.04396 z M 567.88075,272.29759 L 567.59919,279.49014 L 546.91741,279.49014 L 546.91741,278.56868 L 562.47994,257.8357 L 554.80106,257.8357 C 553.14583,257.83572 552.06225,257.94237 551.55033,258.15565 C 551.0384,258.36898 550.62033,258.77425 550.29611,259.37148 C 549.83538,260.22471 549.57088,261.28268 549.50263,262.54541 L 548.47878,262.54541 L 548.63236,256.04396 L 568.29029,256.04396 L 568.29029,256.99102 L 552.57418,277.77519 L 561.12334,277.77519 C 562.91506,277.77519 564.13088,277.62588 564.7708,277.32726 C 565.41069,277.02864 565.92688,276.50391 566.31938,275.75309 C 566.59238,275.20704 566.82275,274.05521 567.01048,272.29759 L 567.88075,272.29759 z "
       id="text6454" />
    <path
       style="font-size:62.90538406px;font-style:normal;font-variant:normal;font-weight:normal;font-stretch:normal;text-align:center;line-height:100%;writing-mode:lr-tb;text-anchor:middle;fill:black;fill-opacity:1;stroke:none;stroke-width:1px;stroke-linecap:butt;stroke-linejoin:miter;stroke-opacity:1;font-family:Times New Roman"
       d="M 292.84558,351.87638 C 292.84558,347.12574 293.56228,343.03546 294.99567,339.60553 C 296.42905,336.17567 298.33341,333.62116 300.70876,331.94201 C 302.55168,330.61105 304.45604,329.94554 306.42184,329.9455 C 309.61624,329.94554 312.48302,331.57346 315.02219,334.82927 C 318.1961,338.86327 319.78306,344.33063 319.78309,351.23136 C 319.78306,356.06395 319.08685,360.16958 317.69444,363.54828 C 316.30198,366.92699 314.5256,369.37911 312.3653,370.90465 C 310.20495,372.43018 308.12142,373.19295 306.11469,373.19295 C 302.14214,373.19295 298.8351,370.84834 296.19357,366.1591 C 293.96158,362.20705 292.84558,357.44614 292.84558,351.87638 L 292.84558,351.87638 z M 298.86582,352.64427 C 298.86582,358.37785 299.57227,363.05684 300.9852,366.68126 C 302.15237,369.73234 303.89292,371.25788 306.20683,371.25787 C 307.31258,371.25788 308.45929,370.76131 309.64697,369.76817 C 310.83462,368.77504 311.73561,367.11128 312.34994,364.7769 C 313.29186,361.25487 313.76283,356.28919 313.76285,349.87987 C 313.76283,345.12923 313.27138,341.16694 312.28851,337.99297 C 311.55131,335.63815 310.59913,333.96927 309.43196,332.98634 C 308.59239,332.31064 307.57878,331.97277 306.39113,331.97273 C 304.99868,331.97277 303.75982,332.59731 302.67455,333.84637 C 301.20019,335.546 300.19682,338.21825 299.66443,341.86312 C 299.13202,345.50806 298.86582,349.10177 298.86582,352.64427 L 298.86582,352.64427 z "
       id="text6464" />
    <path
       style="font-size:62.90538406px;font-style:normal;font-variant:normal;font-weight:normal;font-stretch:normal;text-align:center;line-height:100%;writing-mode:lr-tb;text-anchor:middle;fill:black;fill-opacity:1;stroke:none;stroke-width:1px;stroke-linecap:butt;stroke-linejoin:miter;stroke-opacity:1;font-family:Times New Roman"
       d="M 481.3233,373.30046 L 484.17985,359.3249 L 478.92749,359.3249 L 478.92749,356.80623 L 484.67129,356.80623 L 486.79067,346.27081 L 478.92749,346.27081 L 478.92749,343.81357 L 487.37426,343.81357 L 490.16937,329.838 L 492.71876,329.838 L 489.92365,343.81357 L 500.27478,343.81357 L 503.25418,329.838 L 505.80357,329.838 L 502.8856,343.81357 L 508.10724,343.81357 L 508.10724,346.27081 L 502.42487,346.27081 L 500.27478,356.80623 L 508.10724,356.80623 L 508.10724,359.3249 L 499.75261,359.3249 L 496.89607,373.30046 L 494.40811,373.30046 L 497.20323,359.3249 L 486.79067,359.3249 L 483.87269,373.30046 L 481.3233,373.30046 z M 487.2514,356.80623 L 497.66396,356.80623 L 499.87548,346.27081 L 489.40148,346.27081 L 487.2514,356.80623 z "
       id="text6472" />
    <path
       style="font-size:62.90538406px;font-style:normal;font-variant:normal;font-weight:normal;font-stretch:normal;text-align:center;line-height:100%;writing-mode:lr-tb;text-anchor:middle;fill:black;fill-opacity:1;stroke:none;stroke-width:1px;stroke-linecap:butt;stroke-linejoin:miter;stroke-opacity:1;font-family:Times New Roman"
       d="M 122.27206,350.43275 C 122.19014,349.01987 121.90346,347.6172 121.41203,346.22473 C 120.7158,344.21802 120.36769,342.83582 120.3677,342.07813 C 120.36769,341.01337 120.61853,340.20453 121.12023,339.65161 C 121.6219,339.09877 122.24133,338.82233 122.97852,338.82229 C 123.61329,338.82233 124.16617,339.09877 124.63716,339.65161 C 125.10811,340.20453 125.3436,340.99289 125.34362,342.0167 C 125.3436,342.93821 125.07228,344.22314 124.52965,345.8715 C 123.987,347.51993 123.65425,349.04035 123.5314,350.43275 C 124.65762,349.71609 125.67123,348.84582 126.57224,347.82193 C 127.96465,346.20429 128.99874,345.20091 129.6745,344.81181 C 130.35022,344.42279 131.0362,344.22826 131.73244,344.22822 C 132.40816,344.22826 132.9764,344.45862 133.43716,344.91932 C 133.89786,345.38009 134.12823,345.92785 134.12825,346.5626 C 134.12823,347.32028 133.79036,347.99602 133.11464,348.58982 C 132.43888,349.18369 130.74952,349.77752 128.04658,350.37132 C 126.46983,350.71946 125.1593,351.11876 124.115,351.56923 C 125.17978,352.12214 126.48007,352.54192 128.01587,352.82856 C 130.49356,353.27909 132.11636,353.8422 132.88428,354.51792 C 133.65214,355.19369 134.03608,355.93086 134.03611,356.72943 C 134.03608,357.34377 133.80572,357.87617 133.34501,358.32664 C 132.88425,358.77716 132.34673,359.00241 131.73244,359.00238 C 131.11811,359.00241 130.43725,358.7874 129.68986,358.35736 C 128.94243,357.92736 127.93394,356.96495 126.66438,355.4701 C 125.82481,354.46675 124.78048,353.52481 123.5314,352.64427 C 123.57234,353.81149 123.80782,355.08106 124.23786,356.453 C 124.97501,358.86931 125.3436,360.5177 125.34362,361.39819 C 125.3436,362.21729 125.09787,362.90839 124.60644,363.47149 C 124.11498,364.03463 123.59282,364.31619 123.03995,364.31617 C 122.28229,364.31619 121.59631,364.01927 120.98201,363.42542 C 120.55198,362.99542 120.33697,362.30944 120.33699,361.36748 C 120.33697,360.3846 120.57246,359.20206 121.04344,357.81984 C 121.5144,356.43766 121.81132,355.48548 121.93419,354.96329 C 122.05704,354.44116 122.16966,353.66815 122.27206,352.64427 C 121.06391,353.4429 120.00934,354.33365 119.10837,355.31652 C 117.61353,356.99566 116.4873,358.06047 115.72966,358.51094 C 115.19725,358.83859 114.64437,359.00241 114.07102,359.00238 C 113.3748,359.00241 112.78096,358.76692 112.28952,358.29593 C 111.79807,357.82498 111.55234,357.30282 111.55235,356.72943 C 111.55234,356.21754 111.76223,355.68001 112.18202,355.11687 C 112.60179,354.55378 113.23146,354.08793 114.07102,353.71931 C 114.62389,353.47362 115.88323,353.14599 117.84903,352.73642 C 119.11859,352.47025 120.35745,352.08118 121.56561,351.56923 C 120.45984,351.01638 119.13907,350.58636 117.60331,350.27918 C 115.08462,349.74681 113.52837,349.2656 112.93455,348.83555 C 112.01308,348.15984 111.55234,347.34076 111.55235,346.3783 C 111.55234,345.82546 111.78271,345.31866 112.24345,344.85789 C 112.70417,344.39719 113.2417,344.16683 113.85601,344.16679 C 114.53175,344.16683 115.24844,344.38183 116.0061,344.81181 C 116.76374,345.24187 117.70568,346.10702 118.83193,347.40727 C 119.95815,348.7076 121.10486,349.71609 122.27206,350.43275 L 122.27206,350.43275 z "
       id="text6476" />
  </g>
</svg>
